<?xml version="1.0" encoding="UTF-8" standalone="no"?>
<svg
   version="1.1"
   viewBox="0 0 140.61134 126.66299"
   id="svg88"
   sodipodi:docname="nesxtep.svg"
   width="140.61134"
   height="126.66299"
   inkscape:version="1.2.1 (9c6d41e, 2022-07-14)"
   xmlns:inkscape="http://www.inkscape.org/namespaces/inkscape"
   xmlns:sodipodi="http://sodipodi.sourceforge.net/DTD/sodipodi-0.dtd"
   xmlns:xlink="http://www.w3.org/1999/xlink"
   xmlns="http://www.w3.org/2000/svg"
   xmlns:svg="http://www.w3.org/2000/svg">
  <defs
     id="defs92">
    <linearGradient
       id="linearGradient1423">
      <stop
         style="stop-color:#ffcc00;stop-opacity:0;"
         offset="0"
         id="stop1429" />
      <stop
         style="stop-color:#ffcc00;stop-opacity:1;"
         offset="1"
         id="stop1427" />
    </linearGradient>
    <linearGradient
       id="linearGradient1423-1">
      <stop
         style="stop-color:#0373a7;stop-opacity:1;"
         offset="0"
         id="stop1419" />
      <stop
         style="stop-color:#c7a03f;stop-opacity:1;"
         offset="1"
         id="stop1421" />
    </linearGradient>
    <linearGradient
       inkscape:collect="always"
       xlink:href="#linearGradient1423-1"
       id="linearGradient1425"
       x1="21.623463"
       y1="110.82038"
       x2="142.81062"
       y2="110.82038"
       gradientUnits="userSpaceOnUse" />
  </defs>
  <sodipodi:namedview
     id="namedview90"
     pagecolor="#ffffff"
     bordercolor="#000000"
     borderopacity="0.25"
     inkscape:showpageshadow="2"
     inkscape:pageopacity="0.0"
     inkscape:pagecheckerboard="true"
     inkscape:deskcolor="#d1d1d1"
     showgrid="false"
     inkscape:zoom="5.6568543"
     inkscape:cx="55.331105"
     inkscape:cy="89.537396"
     inkscape:window-width="1928"
     inkscape:window-height="1257"
     inkscape:window-x="128"
     inkscape:window-y="44"
     inkscape:window-maximized="0"
     inkscape:current-layer="svg88" />
  <g
     id="g522">
    <g
       id="g473"
       transform="translate(-68.178813,-56.02)">
      <path
         fill="#c7a03f"
         d="m 105.37,56.02 q 1.01,6.17 0.88,12.44 -18.82,1.87 -28.74,3.58 c -5.19,0.89 -10.28,-1.22 -9.18,-7.4 a 1.16,1.16 0 0 1 0.87,-0.93 q 17.87,-4.35 36.17,-7.69 z"
         id="path56" />
      <path
         fill="#a9922e"
         d="m 105.37,56.02 c 3.23,0.02 9.69,3.45 13.08,4.68 q 0.61,0.21 0.59,0.85 l -0.23,7.33 q -0.02,0.64 -0.66,0.59 l -11.9,-1.01 q 0.13,-6.27 -0.88,-12.44 z"
         id="path58" />
    </g>
    <g
       id="g477"
       transform="translate(-68.178813,-56.02)">
      <path
         fill="#c7a03f"
         d="m 106.4,70.99 q -0.9,3.87 -1.39,7.74 c -0.15,1.12 0.21,1.94 0.49,2.98 -3.73,0.05 -13.18,1.81 -17.35,-0.01 q -0.49,-0.22 -0.69,-0.72 -1.31,-3.36 -0.39,-6.87 0.14,-0.56 0.71,-0.66 9.41,-1.81 18.62,-2.46 z"
         id="path60" />
      <path
         fill="#a9922e"
         d="m 106.4,70.99 q 14.6,0.19 28.93,1.83 0.55,0.06 0.54,0.62 l -0.17,8.68 q -0.01,0.58 -0.59,0.58 -14.88,0.03 -29.61,-0.99 c -0.28,-1.04 -0.64,-1.86 -0.49,-2.98 q 0.49,-3.87 1.39,-7.74 z"
         id="path62" />
    </g>
    <g
       id="g481"
       transform="translate(-68.178813,-56.02)">
      <path
         fill="#337c54"
         d="m 122.75,93.96 -0.01,-0.97 q 0,-0.28 -0.28,-0.24 l -0.56,0.07 q -0.39,0.06 -0.76,-0.06 -7.61,-2.27 -14.6,-6.05 c -0.48,-0.26 -0.99,-0.23 -1.5,-0.21 q -0.23,-0.65 0.03,-1.15 0.25,-0.49 0.8,-0.49 c 15.37,-0.19 30.6,-0.01 45.97,0.42 q 0.66,0.02 0.66,0.68 v 8.08 q 0,0.66 -0.66,0.65 z"
         id="path64" />
      <path
         fill="#6da643"
         d="m 105.04,86.5 c 0.51,-0.02 1.02,-0.05 1.5,0.21 q 6.99,3.78 14.6,6.05 0.37,0.12 0.76,0.06 l 0.56,-0.07 q 0.28,-0.04 0.28,0.24 l 0.01,0.97 c -5.54,0.54 -11.29,0.82 -16.85,0.45 q -0.62,-0.05 -0.64,-0.67 z"
         id="path66" />
    </g>
    <g
       id="g485"
       transform="translate(-68.178813,-56.02)">
      <path
         fill="#23867c"
         d="m 141.75,107.21 c -1.39,-0.56 -2.19,-1.47 -3.53,-1.98 q -7.12,-2.75 -14.22,-5.56 -0.42,-0.17 -0.84,0.02 -0.32,0.14 -0.62,0.06 L 122.5,98.8 q -0.02,-0.52 0.5,-0.52 l 46.6,-0.32 q 0.65,-0.01 0.65,0.64 v 8.61 q 0,0.54 -0.54,0.53 z"
         id="path68" />
      <path
         fill="#49aeb3"
         d="m 141.75,107.21 q -8.62,0.19 -17.26,0.35 c -3.48,0.07 -2.17,-5.59 -1.95,-7.81 q 0.3,0.08 0.62,-0.06 0.42,-0.19 0.84,-0.02 7.1,2.81 14.22,5.56 c 1.34,0.51 2.14,1.42 3.53,1.98 z"
         id="path70" />
    </g>
    <g
       id="g490"
       transform="translate(-68.178813,-56.02)">
      <path
         fill="#49aeb3"
         d="m 141.15,112.46 q 8.1,4.15 16.8,6.82 1.13,0.35 2.55,2.43 l -19.98,-0.15 a 0.91,0.91 0 0 1 -0.9,-0.89 l -0.17,-7.58 q -0.01,-0.57 0.52,-0.79 0.59,-0.25 1.18,0.16 z"
         id="path72" />
      <path
         fill="#2194aa"
         d="m 141.15,112.46 q 13.08,-0.42 25.81,0.24 5.32,0.87 10.7,0.63 c 1.24,-0.05 2.38,0.62 1.8,1.98 q -0.19,0.46 -0.1,0.94 0.62,3.1 -0.69,5.93 l -18.17,-0.47 q -1.42,-2.08 -2.55,-2.43 -8.7,-2.67 -16.8,-6.82 z"
         id="path74" />
      <path
         fill="#057b9a"
         d="m 166.96,112.7 22.73,0.28 q 0.53,0 0.53,0.53 l 0.09,8.49 q 0.01,0.55 -0.54,0.53 l -11.1,-0.35 q 1.31,-2.83 0.69,-5.93 -0.09,-0.48 0.1,-0.94 c 0.58,-1.36 -0.56,-2.03 -1.8,-1.98 q -5.38,0.24 -10.7,-0.63 z"
         id="path76" />
    </g>
    <g
       id="g494"
       transform="translate(-68.178813,-56.02)">
      <path
         fill="#057b9a"
         d="m 170.75,136.21 q 0.72,-1.43 -0.68,-2.03 -3.73,-1.6 -12.54,-5.66 c -0.78,-0.36 -1.66,-0.28 -2.49,-0.27 q -0.22,-0.54 0.1,-1.01 0.28,-0.41 0.77,-0.4 l 52.15,1.17 q 0.59,0.01 0.6,0.61 l 0.13,8.31 q 0.01,0.65 -0.64,0.63 z"
         id="path78" />
      <path
         fill="#2194aa"
         d="m 155.04,128.25 c 0.83,-0.01 1.71,-0.09 2.49,0.27 q 8.81,4.06 12.54,5.66 1.4,0.6 0.68,2.03 l -13.94,-0.01 q -1.54,0 -1.58,-1.53 z"
         id="path80" />
    </g>
    <g
       id="g498"
       transform="translate(-68.178813,-56.02)">
      <path
         fill="#2194aa"
         d="m 170.25,142.29 -0.51,0.57 q -0.42,0.46 0.08,0.82 5.14,3.8 11.29,5.55 0.61,0.17 0.4,0.77 l -0.51,1.46 -12.58,0.22 a 1.36,1.36 0 0 1 -1.39,-1.35 l -0.04,-7.56 q -0.01,-0.51 0.5,-0.5 z"
         id="path82" />
      <path
         fill="#0373a7"
         d="m 170.25,142.29 37.79,1.51 q 0.46,0.02 0.5,0.48 0.45,6.11 -5.28,6.67 -5.18,0.5 -22.26,0.51 l 0.51,-1.46 q 0.21,-0.6 -0.4,-0.77 -6.15,-1.75 -11.29,-5.55 -0.5,-0.36 -0.08,-0.82 z"
         id="path84" />
    </g>
    <text
       xml:space="preserve"
       style="font-size:29.4465px;font-family:'Noto Sans Glagolitic';-inkscape-font-specification:'Noto Sans Glagolitic, Normal';fill:url(#linearGradient1425);fill-opacity:1;stroke:#000000;stroke-width:0.999999;stroke-linecap:round;stroke-linejoin:round"
       x="19.247828"
       y="118.75713"
       id="text604"
       transform="matrix(0.94379567,-0.04980499,-0.0670228,1.0630882,0,0)"><tspan
         sodipodi:role="line"
         id="tspan602"
         x="19.247828"
         y="118.75713"
         style="fill:url(#linearGradient1425);fill-opacity:1;stroke-width:0.999999">NeSxtep</tspan></text>
  </g>
</svg>
